PathFileType	4	(X/Y/Z)	S01_0016_Gait_markers.trc
DataRate	CameraRate	NumFrames	NumMarkers	Units	OrigDataRate	OrigDataStartFrame	OrigNumFrames
250.000000	250.000000	4	54	mm	250.000000	0	356
Frame#	Time	HEAD_ANT			R_HEAD			L_HEAD			C7			R_BACK			L_BACK			STERNUM			R_ACROMION			R_HUM_PROX			R_HUM_ANT			R_HUM_POST			R_ELBOW_LAT			R_ELBOW_MED			R_FOREARM			R_WIRST_LAT			R_WRITS_MED			R_HAND			L_ACROMION			L_HUM_PROX			L_HUM_ANT			L_HUM_POST			L_ELBOW_LAT			L_ELBOW_MED			L_FOREARM			L_WRIST_LAT			L_WIRST_MED			L_HAND			R_ILIAC			SACRUM			L_ILIAC			R_GTROCH			R_THIGH__1			R_THIGH_2			R_THIGH_3			R_THIGH_4			R_SHANK_1			R_SHANK_2			R_SHANK_3			R_SHANK_4			R_HEEL			R_FOOT_LAT			R_FOOT_MED			L_GTROCH			L_THIGH_1			L_THIGH_2			L_THIGH_3			L_THIGH_4			L_SHANK_1			L_SHANK_2			L_SHANK_3			L_SHANK_4			L_HEEL			L_FOOT_LAT			L_FOOT_MED			
		X1	Y1	Z1	X2	Y2	Z2	X3	Y3	Z3	X4	Y4	Z4	X5	Y5	Z5	X6	Y6	Z6	X7	Y7	Z7	X8	Y8	Z8	X9	Y9	Z9	X10	Y10	Z10	X11	Y11	Z11	X12	Y12	Z12	X13	Y13	Z13	X14	Y14	Z14	X15	Y15	Z15	X16	Y16	Z16	X17	Y17	Z17	X18	Y18	Z18	X19	Y19	Z19	X20	Y20	Z20	X21	Y21	Z21	X22	Y22	Z22	X23	Y23	Z23	X24	Y24	Z24	X25	Y25	Z25	X26	Y26	Z26	X27	Y27	Z27	X28	Y28	Z28	X29	Y29	Z29	X30	Y30	Z30	X31	Y31	Z31	X32	Y32	Z32	X33	Y33	Z33	X34	Y34	Z34	X35	Y35	Z35	X36	Y36	Z36	X37	Y37	Z37	X38	Y38	Z38	X39	Y39	Z39	X40	Y40	Z40	X41	Y41	Z41	X42	Y42	Z42	X43	Y43	Z43	X44	Y44	Z44	X45	Y45	Z45	X46	Y46	Z46	X47	Y47	Z47	X48	Y48	Z48	X49	Y49	Z49	X50	Y50	Z50	X51	Y51	Z51	X52	Y52	Z52	X53	Y53	Z53	X54	Y54	Z54	

1	0	24.89947700500488	1750.423706054688	-369.318695068359	-31.24116134643555	1701.62890625	-288.3354797363277	-33.11761474609375	1696.862548828125	-435.6263427734371	-167.7489471435547	1529.51025390625	-357.3198852539059	-244.408935546875	1335.127807617188	-288.248107910156	-240.0776214599609	1336.564575195312	-430.9628601074216	9.767557144165039	1367.8544921875	-348.8708190917966	-95.70952606201172	1489.116333007812	-183.647552490234	-146.6443634033203	1333.877197265625	-89.44454193115205	-89.547119140625	1246.177001953125	-79.57944488525364	-211.8863830566406	1253.895141601562	-78.77978515624972	-169.5005493164062	1146.874267578125	-64.97170257568334	-184.5339508056641	1139.688354492188	-144.5921325683591	-68.99675750732422	962.2987060546875	-54.62066268920877	-29.42436408996582	895.684326171875	-94.65428924560527	-96.72621917724609	872.8267211914062	-55.77997207641582	-25.65781021118164	809.276123046875	-36.66815567016584	-88.46710205078125	1481.531372070313	-521.1178588867184	-106.4604873657227	1317.327026367188	-620.4845581054684	-43.62874221801758	1237.39111328125	-618.9348144531248	-163.8001098632812	1239.555297851563	-647.7094726562498	-103.7067413330078	1136.461669921875	-657.332092285156	-155.9687194824219	1127.67431640625	-600.896789550781	21.75795555114746	973.6909179687501	-628.5871582031248	59.9454460144043	920.1609497070314	-573.7315673828123	18.0224494934082	889.6311645507814	-635.0202026367185	101.0687255859375	845.0569458007814	-618.5327148437498	-101.2525100708008	1082.67919921875	-180.6268920898435	-225.9112854003906	1052.123901367188	-345.7479248046873	-106.8689651489258	1075.925903320313	-523.456359863281	-131.5540466308594	930.1210327148438	-158.3874053955076	-11.21171569824219	662.9334106445312	-181.469512939453	38.56166839599609	694.2940673828125	-178.319381713867	71.21324920654297	596.9896850585938	-212.4508514404295	8.096216201782227	584.612060546875	-201.5384368896483	-17.13911247253418	371.1688537597657	-204.4036254882812	36.52859115600586	345.4854431152344	-213.8456573486327	26.80411148071289	261.7188720703126	-232.0399322509765	-36.64089584350586	273.9643249511719	-227.3875274658203	-80.41378021240234	61.89000701904304	-321.0298156738281	64.72158050537109	32.94042968750005	-213.8140411376953	130.1587982177734	48.43220520019538	-291.8587951660156	-149.5671234130859	962.8140869140626	-523.6232299804685	-99.29048156738281	669.4837646484376	-507.8749694824217	-149.1850280761719	696.4098510742189	-524.2471313476561	-175.3816375732422	600.6077880859376	-494.3773498535155	-114.4802703857422	592.0957031250001	-484.0189819335936	-204.5772857666016	332.573699951172	-476.9698181152343	-264.7109069824219	320.9723510742189	-479.6200866699218	-282.8815307617188	236.7118988037111	-461.9407958984374	-219.7541656494141	232.4629669189454	-452.8651733398437	-357.2161254882812	60.96057510375985	-390.4818420410156	-188.6342620849609	21.64948844909678	-465.8783874511719	-147.3987884521484	24.81217956542977	-361.258544921875	
2	0.004	30.21408462524414	1749.857421875	-368.7911376953121	-25.82551002502441	1700.976684570312	-287.8747863769527	-27.69655990600586	1696.310913085938	-435.3187255859371	-162.5266723632812	1528.888549804688	-357.2044677734372	-240.7244415283203	1335.057373046875	-287.4124755859372	-234.8271026611328	1336.0615234375	-431.1410217285153	15.00584506988525	1367.260375976562	-348.7202453613278	-90.84437561035156	1488.269897460938	-183.5306243896481	-142.1979522705078	1333.1748046875	-89.54063415527314	-85.17993927001953	1245.327880859375	-79.29762268066379	-207.3739166259766	1253.228149414062	-79.05875396728487	-164.7413330078125	1145.899658203125	-64.94356536865209	-179.5761413574219	1138.791748046875	-144.6705932617185	-64.70563507080078	961.525390625	-54.11455535888651	-25.05840873718262	895.0171508789062	-94.06990051269511	-92.43585968017578	872.2285766601562	-55.40825271606426	-21.32668495178223	808.7003173828125	-35.82810592651349	-82.91225433349609	1481.065551757813	-521.0180664062497	-100.7012023925781	1316.943481445313	-620.6553344726559	-37.51468658447266	1236.733154296875	-617.5963745117185	-157.8341674804688	1239.029052734375	-648.3222656249998	-97.51412200927734	1136.192993164063	-657.4707031249998	-150.0975646972656	1127.117919921875	-601.4381713867185	28.20887756347656	973.6876831054689	-628.315979003906	67.16697692871094	920.7052612304689	-573.5045776367185	24.77145957946777	889.6704711914064	-634.644104003906	107.8417739868164	845.1918945312501	-617.7508544921873	-96.19937896728516	1082.016235351562	-180.3768005371091	-220.5874633789062	1051.4560546875	-345.5444335937498	-101.9915008544922	1075.358276367188	-523.3897705078123	-126.5991287231445	929.5055541992188	-158.5771179199217	-6.08668327331543	662.5160522460938	-181.816680908203	43.21038436889648	693.7470703125	-178.3428649902342	76.58791351318359	596.455322265625	-212.3990783691405	13.45465564727783	584.2022705078125	-201.770553588867	-8.196656227111816	369.7699279785157	-205.1586456298827	46.27048492431641	345.2056274414063	-214.150177001953	38.72628402709961	261.4486083984376	-231.7454986572265	-25.15897941589355	271.8992004394532	-228.1989746093749	-63.62577438354492	59.02926254272468	-321.5168762207031	81.76695251464844	32.42957305908208	-214.5477752685547	146.9469451904297	49.30175018310553	-292.4416809082031	-145.1073150634766	962.4229125976564	-523.650207519531	-97.00894927978516	669.1436157226564	-508.4396972656248	-146.6803588867188	696.4415893554689	-524.3247070312499	-175.0056304931641	600.2131347656251	-492.8570556640624	-112.7006072998047	591.8660278320314	-484.3106994628905	-204.0191650390625	332.9324951171876	-476.9579162597656	-264.2028198242188	321.3251342773439	-479.5864257812499	-282.4989318847656	237.1060333251954	-461.8113098144531	-219.2869720458984	232.7825622558595	-452.8995361328124	-357.0911865234375	61.58668899536141	-390.2239990234375	-188.7799835205078	21.71008110046397	-465.6772766113281	-147.3615417480469	24.82261276245125	-361.2912292480469	
3	0.008	35.30276870727539	1748.991088867188	-367.2433166503902	-20.49042129516602	1700.0126953125	-287.2732238769527	-22.23796463012695	1695.747436523438	-434.9274597167965	-157.1705627441406	1528.202392578125	-357.1016235351559	-235.7249755859375	1334.372314453125	-287.7057800292966	-229.4544830322266	1335.396728515625	-431.1854858398435	19.9952507019043	1366.3642578125	-347.8940124511716	-85.8634033203125	1487.401977539062	-183.2919616699215	-137.677734375	1332.353271484375	-89.52053833007783	-80.75115966796875	1244.578002929688	-79.22190856933567	-202.9359588623047	1252.27734375	-79.32964324951143	-160.6338043212891	1145.302368164062	-65.19397735595678	-174.8943939208984	1138.079345703125	-144.7766418457029	-60.49851989746094	960.785400390625	-53.71403503417947	-20.58518218994141	894.0856323242188	-93.49021148681621	-88.16710662841797	871.367431640625	-55.12483215332012	-17.00164604187012	807.9284057617188	-35.02005004882795	-77.48648071289062	1480.453125	-520.7871704101559	-94.95685577392578	1316.480834960938	-620.6475830078122	-31.71386337280273	1236.41796875	-618.4946289062498	-152.0315856933594	1238.683715820313	-648.5651855468748	-91.46652221679688	1135.677978515625	-657.8141479492185	-146.086181640625	1127.083251953125	-602.4111328124998	34.59453201293945	973.6642456054689	-628.0300292968748	73.38880920410156	920.8488769531251	-572.9596557617185	31.56689453125	889.5759887695314	-634.2650756835935	114.7306137084961	845.6118164062501	-616.8640136718748	-91.46470642089844	1081.228759765625	-180.6384582519529	-215.4766693115234	1050.843383789062	-345.5049133300779	-97.41129302978516	1074.725952148438	-523.3478393554685	-121.5839462280273	928.7885131835938	-158.6616058349607	-1.050260543823242	661.8949584960938	-182.1154937744139	48.35018539428711	693.13623046875	-178.2662811279295	81.79247283935547	596.1499633789062	-212.5548248291014	18.70180130004883	583.70068359375	-202.3526458740233	0.9179585576057434	368.1742858886719	-205.8181610107421	55.88669204711914	344.9529113769532	-214.460952758789	50.2559814453125	260.8074340820313	-232.2860412597656	-13.85926628112793	270.0363159179688	-228.9976806640624	-46.91900253295898	56.28049850463874	-321.7828369140625	98.96121215820312	32.470142364502	-214.9018859863281	163.7539520263672	50.29310226440436	-292.7940368652344	-140.0578002929688	961.8554687500001	-523.351135253906	-94.40402221679688	668.6440429687501	-508.4898986816405	-144.3013458251953	696.3023681640626	-524.2030029296874	-171.810302734375	601.0005493164064	-494.223175048828	-110.926643371582	591.6832885742189	-484.6650390624999	-203.3852996826172	333.0869140625001	-476.9687499999999	-263.7096862792969	321.7286376953126	-479.5224304199218	-281.9968872070312	237.4566650390626	-461.3326416015624	-218.7676239013672	233.0661926269532	-452.8914794921874	-356.978759765625	62.23403549194344	-389.8491516113281	-188.9386138916016	21.77457237243663	-465.5856018066406	-147.3391265869141	24.82883453369149	-361.309326171875	
4	0.012	40.73574066162109	1748.245483398438	-366.7990417480465	-15.2002534866333	1699.143798828125	-287.1385498046871	-16.70170783996582	1695.005004882812	-434.4156494140621	-151.9978790283203	1527.535522460938	-357.025726318359	-230.6686553955078	1333.604370117188	-287.8929443359372	-224.1855621337891	1334.784301757812	-431.2798767089841	25.41922569274902	1365.396606445312	-347.5297241210935	-81.02725982666016	1486.567138671875	-183.1778869628903	-132.9466094970703	1331.427612304688	-89.36417388915986	-76.23326873779297	1243.598754882812	-78.86002349853489	-198.5258636474609	1251.544677734375	-79.54696655273409	-156.3454742431641	1144.6484375	-65.23467254638646	-170.4868469238281	1137.281860351562	-145.0965423583982	-56.18676376342773	960.0717163085938	-53.30287933349588	-15.90711212158203	893.3175048828125	-92.72322845458964	-83.95062255859375	870.3527221679688	-54.53196716308575	-12.75545310974121	807.16552734375	-34.46484374999982	-72.11786651611328	1479.740966796875	-520.5131225585934	-89.21953582763672	1315.990600585938	-620.5997314453122	-25.90866470336914	1236.017456054688	-618.3063964843748	-146.0299682617188	1238.231201171875	-648.7855834960935	-85.56243133544922	1135.302490234375	-658.0743408203123	-140.2162017822266	1126.527587890625	-602.929992675781	41.07205200195312	973.5602416992189	-627.6495361328123	79.70231628417969	920.9323730468751	-572.4820556640623	38.22232055664062	889.5104370117189	-634.011047363281	121.424560546875	845.8313598632814	-616.1884765624998	-86.31320190429688	1080.6181640625	-180.3798828124998	-210.3439331054688	1050.230224609375	-345.5570983886716	-92.55995178222656	1074.010986328125	-523.5026855468748	-116.5423202514648	928.1622924804688	-158.8014373779295	3.964576721191406	661.0092163085938	-182.4430389404295	53.3607292175293	692.4474487304688	-178.1428833007811	86.82757568359375	595.6184692382812	-213.0434570312499	23.85634994506836	582.9440307617188	-202.4810943603514	9.957194328308105	366.6345520019532	-206.336441040039	65.37765502929688	344.6962280273438	-214.5903167724609	61.84328460693359	260.3772888183594	-232.6283111572265	-2.42267370223999	267.9788208007813	-229.6079711914062	-30.13820457458496	53.71009826660163	-321.8734436035156	116.0021896362305	32.62633514404302	-215.3816070556641	180.6080322265625	51.44726562500006	-293.32275390625	-135.3034973144531	961.3723144531251	-523.1517333984373	-92.16971588134766	668.2330322265626	-508.6619262695311	-141.9233551025391	696.2967529296876	-524.4119873046874	-169.8481750488281	601.1605834960939	-494.3205261230468	-109.0463485717773	591.3873901367189	-485.0550537109374	-202.7597808837891	333.2242126464845	-476.9876708984374	-262.9561157226562	322.1334838867189	-479.4834899902343	-281.512451171875	237.8170166015626	-461.2895812988281	-218.1084136962891	233.3916473388673	-453.0537719726562	-356.83154296875	62.81116867065438	-389.6098327636719	-189.032470703125	21.77828025817881	-465.4811401367188	-147.3118591308594	24.77532958984383	-361.2919616699219	
